<?xml version="1.0" encoding="UTF-8" standalone="no"?>
<!DOCTYPE svg PUBLIC "-//W3C//DTD SVG 1.1//EN"
 "http://www.w3.org/Graphics/SVG/1.1/DTD/svg11.dtd">
<!-- Generated by graphviz version 2.44.1 (20200629.0846)
 -->
<!-- Title: API.h Pages: 1 -->
<svg width="131pt" height="196pt"
 viewBox="0.00 0.00 130.50 196.00" xmlns="http://www.w3.org/2000/svg" xmlns:xlink="http://www.w3.org/1999/xlink">
<g id="graph0" class="graph" transform="scale(1 1) rotate(0) translate(4 192)">
<title>API.h</title>
<polygon fill="white" stroke="transparent" points="-4,4 -4,-192 126.5,-192 126.5,4 -4,4"/>
<!-- Node1 -->
<g id="node1" class="node">
<title>Node1</title>
<g id="a_node1"><a xlink:title="Defines macros related to Microsoft Windows.">
<polygon fill="#bfbfbf" stroke="black" points="14.5,-168.5 14.5,-187.5 55.5,-187.5 55.5,-168.5 14.5,-168.5"/>
<text text-anchor="middle" x="35" y="-175.5" font-family="Helvetica,sans-Serif" font-size="10.00">API.h</text>
</a>
</g>
</g>
<!-- Node2 -->
<g id="node2" class="node">
<title>Node2</title>
<g id="a_node2"><a xlink:href="_h_r_v_o_8h.html" target="_top" xlink:title="Includes all public headers.">
<polygon fill="white" stroke="black" points="0,-0.5 0,-19.5 54,-19.5 54,-0.5 0,-0.5"/>
<text text-anchor="middle" x="27" y="-7.5" font-family="Helvetica,sans-Serif" font-size="10.00">HRVO.h</text>
</a>
</g>
</g>
<!-- Node1&#45;&gt;Node2 -->
<g id="edge1" class="edge">
<title>Node1&#45;&gt;Node2</title>
<path fill="none" stroke="midnightblue" d="M28.87,-158.47C21.78,-134.77 11.61,-92.45 16,-56 17.56,-43.06 21.55,-28.48 24.27,-19.51"/>
<polygon fill="midnightblue" stroke="midnightblue" points="25.6,-159.73 31.94,-168.22 32.28,-157.64 25.6,-159.73"/>
</g>
<!-- Node3 -->
<g id="node3" class="node">
<title>Node3</title>
<g id="a_node3"><a xlink:href="_simulator_8h.html" target="_top" xlink:title="Declares the Simulator class.">
<polygon fill="white" stroke="black" points="25.5,-56.5 25.5,-75.5 90.5,-75.5 90.5,-56.5 25.5,-56.5"/>
<text text-anchor="middle" x="58" y="-63.5" font-family="Helvetica,sans-Serif" font-size="10.00">Simulator.h</text>
</a>
</g>
</g>
<!-- Node1&#45;&gt;Node3 -->
<g id="edge2" class="edge">
<title>Node1&#45;&gt;Node3</title>
<path fill="none" stroke="midnightblue" d="M38.9,-158.35C43.94,-134.25 52.5,-93.31 56.2,-75.59"/>
<polygon fill="midnightblue" stroke="midnightblue" points="35.43,-157.86 36.8,-168.37 42.28,-159.3 35.43,-157.86"/>
</g>
<!-- Node4 -->
<g id="node4" class="node">
<title>Node4</title>
<g id="a_node4"><a xlink:href="_vector2_8h.html" target="_top" xlink:title="Declares and defines the Vector2 class.">
<polygon fill="white" stroke="black" points="63.5,-112.5 63.5,-131.5 122.5,-131.5 122.5,-112.5 63.5,-112.5"/>
<text text-anchor="middle" x="93" y="-119.5" font-family="Helvetica,sans-Serif" font-size="10.00">Vector2.h</text>
</a>
</g>
</g>
<!-- Node1&#45;&gt;Node4 -->
<g id="edge4" class="edge">
<title>Node1&#45;&gt;Node4</title>
<path fill="none" stroke="midnightblue" d="M51.91,-161.25C62.2,-151.67 74.97,-139.79 83.51,-131.83"/>
<polygon fill="midnightblue" stroke="midnightblue" points="49.25,-158.95 44.32,-168.32 54.02,-164.07 49.25,-158.95"/>
</g>
<!-- Node3&#45;&gt;Node2 -->
<g id="edge3" class="edge">
<title>Node3&#45;&gt;Node2</title>
<path fill="none" stroke="midnightblue" d="M47.82,-47.27C42.53,-38.05 36.28,-27.17 32.02,-19.75"/>
<polygon fill="midnightblue" stroke="midnightblue" points="44.87,-49.15 52.88,-56.08 50.94,-45.67 44.87,-49.15"/>
</g>
<!-- Node4&#45;&gt;Node3 -->
<g id="edge5" class="edge">
<title>Node4&#45;&gt;Node3</title>
<path fill="none" stroke="midnightblue" d="M81.7,-103.57C75.68,-94.27 68.53,-83.25 63.67,-75.75"/>
<polygon fill="midnightblue" stroke="midnightblue" points="78.84,-105.6 87.22,-112.08 84.72,-101.79 78.84,-105.6"/>
</g>
</g>
</svg>
