<?xml version="1.0" encoding="UTF-8" standalone="no"?>
<!DOCTYPE svg PUBLIC "-//W3C//DTD SVG 1.1//EN"
 "http://www.w3.org/Graphics/SVG/1.1/DTD/svg11.dtd">
<!-- Generated by graphviz version 2.44.1 (20200629.0846)
 -->
<!-- Title: HRVO.h Pages: 1 -->
<svg width="262pt" height="196pt"
 viewBox="0.00 0.00 261.50 196.00" xmlns="http://www.w3.org/2000/svg" xmlns:xlink="http://www.w3.org/1999/xlink">
<g id="graph0" class="graph" transform="scale(1 1) rotate(0) translate(4 192)">
<title>HRVO.h</title>
<polygon fill="white" stroke="transparent" points="-4,4 -4,-192 257.5,-192 257.5,4 -4,4"/>
<!-- Node1 -->
<g id="node1" class="node">
<title>Node1</title>
<g id="a_node1"><a xlink:title="Includes all public headers.">
<polygon fill="#bfbfbf" stroke="black" points="0,-168.5 0,-187.5 54,-187.5 54,-168.5 0,-168.5"/>
<text text-anchor="middle" x="27" y="-175.5" font-family="Helvetica,sans-Serif" font-size="10.00">HRVO.h</text>
</a>
</g>
</g>
<!-- Node2 -->
<g id="node2" class="node">
<title>Node2</title>
<g id="a_node2"><a xlink:href="_a_p_i_8h.html" target="_top" xlink:title="Defines macros related to Microsoft Windows.">
<polygon fill="white" stroke="black" points="1.5,-0.5 1.5,-19.5 42.5,-19.5 42.5,-0.5 1.5,-0.5"/>
<text text-anchor="middle" x="22" y="-7.5" font-family="Helvetica,sans-Serif" font-size="10.00">API.h</text>
</a>
</g>
</g>
<!-- Node1&#45;&gt;Node2 -->
<g id="edge1" class="edge">
<title>Node1&#45;&gt;Node2</title>
<path fill="none" stroke="midnightblue" d="M26.73,-168.08C25.94,-141.95 23.63,-65.21 22.56,-29.58"/>
<polygon fill="midnightblue" stroke="midnightblue" points="26.06,-29.46 22.26,-19.57 19.06,-29.67 26.06,-29.46"/>
</g>
<!-- Node3 -->
<g id="node3" class="node">
<title>Node3</title>
<g id="a_node3"><a xlink:href="_simulator_8h.html" target="_top" xlink:title="Declares the Simulator class.">
<polygon fill="white" stroke="black" points="37.5,-112.5 37.5,-131.5 102.5,-131.5 102.5,-112.5 37.5,-112.5"/>
<text text-anchor="middle" x="70" y="-119.5" font-family="Helvetica,sans-Serif" font-size="10.00">Simulator.h</text>
</a>
</g>
</g>
<!-- Node1&#45;&gt;Node3 -->
<g id="edge2" class="edge">
<title>Node1&#45;&gt;Node3</title>
<path fill="none" stroke="midnightblue" d="M34.1,-168.08C40.24,-160.38 49.27,-149.03 56.74,-139.65"/>
<polygon fill="midnightblue" stroke="midnightblue" points="59.54,-141.75 63.03,-131.75 54.06,-137.39 59.54,-141.75"/>
</g>
<!-- Node3&#45;&gt;Node2 -->
<g id="edge3" class="edge">
<title>Node3&#45;&gt;Node2</title>
<path fill="none" stroke="midnightblue" d="M63.43,-112.47C56.96,-103.72 47.18,-89.53 41,-76 34.13,-60.96 29.08,-42.83 25.91,-29.54"/>
<polygon fill="midnightblue" stroke="midnightblue" points="29.31,-28.69 23.7,-19.7 22.48,-30.22 29.31,-28.69"/>
</g>
<!-- Node4 -->
<g id="node4" class="node">
<title>Node4</title>
<g id="a_node4"><a xlink:title=" ">
<polygon fill="white" stroke="#bfbfbf" points="50,-56.5 50,-75.5 90,-75.5 90,-56.5 50,-56.5"/>
<text text-anchor="middle" x="70" y="-63.5" font-family="Helvetica,sans-Serif" font-size="10.00">limits</text>
</a>
</g>
</g>
<!-- Node3&#45;&gt;Node4 -->
<g id="edge4" class="edge">
<title>Node3&#45;&gt;Node4</title>
<path fill="none" stroke="midnightblue" d="M70,-112.08C70,-105.01 70,-94.86 70,-85.99"/>
<polygon fill="midnightblue" stroke="midnightblue" points="73.5,-85.75 70,-75.75 66.5,-85.75 73.5,-85.75"/>
</g>
<!-- Node5 -->
<g id="node5" class="node">
<title>Node5</title>
<g id="a_node5"><a xlink:title=" ">
<polygon fill="white" stroke="#bfbfbf" points="108,-56.5 108,-75.5 152,-75.5 152,-56.5 108,-56.5"/>
<text text-anchor="middle" x="130" y="-63.5" font-family="Helvetica,sans-Serif" font-size="10.00">vector</text>
</a>
</g>
</g>
<!-- Node3&#45;&gt;Node5 -->
<g id="edge5" class="edge">
<title>Node3&#45;&gt;Node5</title>
<path fill="none" stroke="midnightblue" d="M79.64,-112.32C88.51,-104.34 101.87,-92.31 112.61,-82.65"/>
<polygon fill="midnightblue" stroke="midnightblue" points="115.09,-85.13 120.18,-75.83 110.41,-79.92 115.09,-85.13"/>
</g>
<!-- Node6 -->
<g id="node6" class="node">
<title>Node6</title>
<g id="a_node6"><a xlink:href="_vector2_8h.html" target="_top" xlink:title="Declares and defines the Vector2 class.">
<polygon fill="white" stroke="black" points="170.5,-56.5 170.5,-75.5 229.5,-75.5 229.5,-56.5 170.5,-56.5"/>
<text text-anchor="middle" x="200" y="-63.5" font-family="Helvetica,sans-Serif" font-size="10.00">Vector2.h</text>
</a>
</g>
</g>
<!-- Node3&#45;&gt;Node6 -->
<g id="edge6" class="edge">
<title>Node3&#45;&gt;Node6</title>
<path fill="none" stroke="midnightblue" d="M90.6,-112.44C111.99,-103.56 145.68,-89.56 170.02,-79.45"/>
<polygon fill="midnightblue" stroke="midnightblue" points="171.61,-82.58 179.5,-75.52 168.92,-76.12 171.61,-82.58"/>
</g>
<!-- Node6&#45;&gt;Node2 -->
<g id="edge7" class="edge">
<title>Node6&#45;&gt;Node2</title>
<path fill="none" stroke="midnightblue" d="M171.8,-56.44C139.19,-46.55 85.74,-30.34 52.28,-20.19"/>
<polygon fill="midnightblue" stroke="midnightblue" points="53.17,-16.8 42.58,-17.24 51.13,-23.5 53.17,-16.8"/>
</g>
<!-- Node7 -->
<g id="node7" class="node">
<title>Node7</title>
<g id="a_node7"><a xlink:title=" ">
<polygon fill="white" stroke="#bfbfbf" points="146,-0.5 146,-19.5 190,-19.5 190,-0.5 146,-0.5"/>
<text text-anchor="middle" x="168" y="-7.5" font-family="Helvetica,sans-Serif" font-size="10.00">cmath</text>
</a>
</g>
</g>
<!-- Node6&#45;&gt;Node7 -->
<g id="edge8" class="edge">
<title>Node6&#45;&gt;Node7</title>
<path fill="none" stroke="midnightblue" d="M194.72,-56.08C190.29,-48.61 183.84,-37.72 178.38,-28.52"/>
<polygon fill="midnightblue" stroke="midnightblue" points="181.29,-26.57 173.19,-19.75 175.27,-30.14 181.29,-26.57"/>
</g>
<!-- Node8 -->
<g id="node8" class="node">
<title>Node8</title>
<g id="a_node8"><a xlink:title=" ">
<polygon fill="white" stroke="#bfbfbf" points="208.5,-0.5 208.5,-19.5 253.5,-19.5 253.5,-0.5 208.5,-0.5"/>
<text text-anchor="middle" x="231" y="-7.5" font-family="Helvetica,sans-Serif" font-size="10.00">iosfwd</text>
</a>
</g>
</g>
<!-- Node6&#45;&gt;Node8 -->
<g id="edge9" class="edge">
<title>Node6&#45;&gt;Node8</title>
<path fill="none" stroke="midnightblue" d="M205.12,-56.08C209.41,-48.61 215.66,-37.72 220.94,-28.52"/>
<polygon fill="midnightblue" stroke="midnightblue" points="224.03,-30.17 225.98,-19.75 217.96,-26.68 224.03,-30.17"/>
</g>
</g>
</svg>
