<?xml version="1.0" encoding="UTF-8" standalone="no"?>
<!DOCTYPE svg PUBLIC "-//W3C//DTD SVG 1.1//EN"
 "http://www.w3.org/Graphics/SVG/1.1/DTD/svg11.dtd">
<!-- Generated by graphviz version 2.44.1 (20200629.0846)
 -->
<!-- Title: Simulator.h Pages: 1 -->
<svg width="223pt" height="140pt"
 viewBox="0.00 0.00 223.39 140.00" xmlns="http://www.w3.org/2000/svg" xmlns:xlink="http://www.w3.org/1999/xlink">
<g id="graph0" class="graph" transform="scale(1 1) rotate(0) translate(4 136)">
<title>Simulator.h</title>
<polygon fill="white" stroke="transparent" points="-4,4 -4,-136 219.39,-136 219.39,4 -4,4"/>
<!-- Node1 -->
<g id="node1" class="node">
<title>Node1</title>
<g id="a_node1"><a xlink:title="Declares the Simulator class.">
<polygon fill="#bfbfbf" stroke="black" points="29.39,-112.5 29.39,-131.5 94.39,-131.5 94.39,-112.5 29.39,-112.5"/>
<text text-anchor="middle" x="61.89" y="-119.5" font-family="Helvetica,sans-Serif" font-size="10.00">Simulator.h</text>
</a>
</g>
</g>
<!-- Node2 -->
<g id="node2" class="node">
<title>Node2</title>
<g id="a_node2"><a xlink:href="_a_p_i_8h.html" target="_top" xlink:title="Defines macros related to Microsoft Windows.">
<polygon fill="white" stroke="black" points="21.39,-0.5 21.39,-19.5 62.39,-19.5 62.39,-0.5 21.39,-0.5"/>
<text text-anchor="middle" x="41.89" y="-7.5" font-family="Helvetica,sans-Serif" font-size="10.00">API.h</text>
</a>
</g>
</g>
<!-- Node1&#45;&gt;Node2 -->
<g id="edge1" class="edge">
<title>Node1&#45;&gt;Node2</title>
<path fill="none" stroke="midnightblue" d="M42.9,-112.4C29,-104.95 11.17,-92.74 2.89,-76 -5.8,-58.45 8.79,-39.34 22.53,-26.42"/>
<polygon fill="midnightblue" stroke="midnightblue" points="25.12,-28.8 30.34,-19.58 20.51,-23.53 25.12,-28.8"/>
</g>
<!-- Node3 -->
<g id="node3" class="node">
<title>Node3</title>
<g id="a_node3"><a xlink:title=" ">
<polygon fill="white" stroke="#bfbfbf" points="11.89,-56.5 11.89,-75.5 51.89,-75.5 51.89,-56.5 11.89,-56.5"/>
<text text-anchor="middle" x="31.89" y="-63.5" font-family="Helvetica,sans-Serif" font-size="10.00">limits</text>
</a>
</g>
</g>
<!-- Node1&#45;&gt;Node3 -->
<g id="edge2" class="edge">
<title>Node1&#45;&gt;Node3</title>
<path fill="none" stroke="midnightblue" d="M56.93,-112.08C52.78,-104.61 46.74,-93.72 41.62,-84.52"/>
<polygon fill="midnightblue" stroke="midnightblue" points="44.67,-82.79 36.75,-75.75 38.55,-86.19 44.67,-82.79"/>
</g>
<!-- Node4 -->
<g id="node4" class="node">
<title>Node4</title>
<g id="a_node4"><a xlink:title=" ">
<polygon fill="white" stroke="#bfbfbf" points="69.89,-56.5 69.89,-75.5 113.89,-75.5 113.89,-56.5 69.89,-56.5"/>
<text text-anchor="middle" x="91.89" y="-63.5" font-family="Helvetica,sans-Serif" font-size="10.00">vector</text>
</a>
</g>
</g>
<!-- Node1&#45;&gt;Node4 -->
<g id="edge3" class="edge">
<title>Node1&#45;&gt;Node4</title>
<path fill="none" stroke="midnightblue" d="M66.84,-112.08C70.99,-104.61 77.04,-93.72 82.16,-84.52"/>
<polygon fill="midnightblue" stroke="midnightblue" points="85.23,-86.19 87.03,-75.75 79.11,-82.79 85.23,-86.19"/>
</g>
<!-- Node5 -->
<g id="node5" class="node">
<title>Node5</title>
<g id="a_node5"><a xlink:href="_vector2_8h.html" target="_top" xlink:title="Declares and defines the Vector2 class.">
<polygon fill="white" stroke="black" points="132.39,-56.5 132.39,-75.5 191.39,-75.5 191.39,-56.5 132.39,-56.5"/>
<text text-anchor="middle" x="161.89" y="-63.5" font-family="Helvetica,sans-Serif" font-size="10.00">Vector2.h</text>
</a>
</g>
</g>
<!-- Node1&#45;&gt;Node5 -->
<g id="edge4" class="edge">
<title>Node1&#45;&gt;Node5</title>
<path fill="none" stroke="midnightblue" d="M77.96,-112.32C93.85,-103.74 118.4,-90.49 136.85,-80.52"/>
<polygon fill="midnightblue" stroke="midnightblue" points="138.73,-83.49 145.86,-75.65 135.4,-77.33 138.73,-83.49"/>
</g>
<!-- Node5&#45;&gt;Node2 -->
<g id="edge5" class="edge">
<title>Node5&#45;&gt;Node2</title>
<path fill="none" stroke="midnightblue" d="M142.87,-56.44C123.3,-47.64 92.58,-33.81 70.16,-23.72"/>
<polygon fill="midnightblue" stroke="midnightblue" points="71.37,-20.43 60.81,-19.52 68.5,-26.81 71.37,-20.43"/>
</g>
<!-- Node6 -->
<g id="node6" class="node">
<title>Node6</title>
<g id="a_node6"><a xlink:title=" ">
<polygon fill="white" stroke="#bfbfbf" points="107.89,-0.5 107.89,-19.5 151.89,-19.5 151.89,-0.5 107.89,-0.5"/>
<text text-anchor="middle" x="129.89" y="-7.5" font-family="Helvetica,sans-Serif" font-size="10.00">cmath</text>
</a>
</g>
</g>
<!-- Node5&#45;&gt;Node6 -->
<g id="edge6" class="edge">
<title>Node5&#45;&gt;Node6</title>
<path fill="none" stroke="midnightblue" d="M156.6,-56.08C152.18,-48.61 145.73,-37.72 140.27,-28.52"/>
<polygon fill="midnightblue" stroke="midnightblue" points="143.18,-26.57 135.07,-19.75 137.16,-30.14 143.18,-26.57"/>
</g>
<!-- Node7 -->
<g id="node7" class="node">
<title>Node7</title>
<g id="a_node7"><a xlink:title=" ">
<polygon fill="white" stroke="#bfbfbf" points="170.39,-0.5 170.39,-19.5 215.39,-19.5 215.39,-0.5 170.39,-0.5"/>
<text text-anchor="middle" x="192.89" y="-7.5" font-family="Helvetica,sans-Serif" font-size="10.00">iosfwd</text>
</a>
</g>
</g>
<!-- Node5&#45;&gt;Node7 -->
<g id="edge7" class="edge">
<title>Node5&#45;&gt;Node7</title>
<path fill="none" stroke="midnightblue" d="M167.01,-56.08C171.3,-48.61 177.55,-37.72 182.83,-28.52"/>
<polygon fill="midnightblue" stroke="midnightblue" points="185.92,-30.17 187.86,-19.75 179.85,-26.68 185.92,-30.17"/>
</g>
</g>
</svg>
