<?xml version="1.0" encoding="UTF-8" standalone="no"?>
<!DOCTYPE svg PUBLIC "-//W3C//DTD SVG 1.1//EN"
 "http://www.w3.org/Graphics/SVG/1.1/DTD/svg11.dtd">
<!-- Generated by graphviz version 2.44.1 (20200629.0846)
 -->
<!-- Title: Vector2.h Pages: 1 -->
<svg width="73pt" height="140pt"
 viewBox="0.00 0.00 73.00 140.00" xmlns="http://www.w3.org/2000/svg" xmlns:xlink="http://www.w3.org/1999/xlink">
<g id="graph0" class="graph" transform="scale(1 1) rotate(0) translate(4 136)">
<title>Vector2.h</title>
<polygon fill="white" stroke="transparent" points="-4,4 -4,-136 69,-136 69,4 -4,4"/>
<!-- Node1 -->
<g id="node1" class="node">
<title>Node1</title>
<g id="a_node1"><a xlink:title="Declares and defines the Vector2 class.">
<polygon fill="#bfbfbf" stroke="black" points="3,-112.5 3,-131.5 62,-131.5 62,-112.5 3,-112.5"/>
<text text-anchor="middle" x="32.5" y="-119.5" font-family="Helvetica,sans-Serif" font-size="10.00">Vector2.h</text>
</a>
</g>
</g>
<!-- Node2 -->
<g id="node2" class="node">
<title>Node2</title>
<g id="a_node2"><a xlink:href="_simulator_8h.html" target="_top" xlink:title="Declares the Simulator class.">
<polygon fill="white" stroke="black" points="0,-56.5 0,-75.5 65,-75.5 65,-56.5 0,-56.5"/>
<text text-anchor="middle" x="32.5" y="-63.5" font-family="Helvetica,sans-Serif" font-size="10.00">Simulator.h</text>
</a>
</g>
</g>
<!-- Node1&#45;&gt;Node2 -->
<g id="edge1" class="edge">
<title>Node1&#45;&gt;Node2</title>
<path fill="none" stroke="midnightblue" d="M32.5,-101.8C32.5,-92.91 32.5,-82.78 32.5,-75.75"/>
<polygon fill="midnightblue" stroke="midnightblue" points="29,-102.08 32.5,-112.08 36,-102.08 29,-102.08"/>
</g>
<!-- Node3 -->
<g id="node3" class="node">
<title>Node3</title>
<g id="a_node3"><a xlink:href="_h_r_v_o_8h.html" target="_top" xlink:title="Includes all public headers.">
<polygon fill="white" stroke="black" points="5.5,-0.5 5.5,-19.5 59.5,-19.5 59.5,-0.5 5.5,-0.5"/>
<text text-anchor="middle" x="32.5" y="-7.5" font-family="Helvetica,sans-Serif" font-size="10.00">HRVO.h</text>
</a>
</g>
</g>
<!-- Node2&#45;&gt;Node3 -->
<g id="edge2" class="edge">
<title>Node2&#45;&gt;Node3</title>
<path fill="none" stroke="midnightblue" d="M32.5,-45.8C32.5,-36.91 32.5,-26.78 32.5,-19.75"/>
<polygon fill="midnightblue" stroke="midnightblue" points="29,-46.08 32.5,-56.08 36,-46.08 29,-46.08"/>
</g>
</g>
</svg>
